<svg id="visual" viewBox="0 0 900 600" width="900" height="600" xmlns="http://www.w3.org/2000/svg" xmlns:xlink="http://www.w3.org/1999/xlink" version="1.1"><path d="M0 103L47 169L95 163L142 157L189 97L237 157L284 115L332 91L379 139L426 133L474 139L521 163L568 181L616 157L663 109L711 211L758 127L805 133L853 217L900 139L900 0L853 0L805 0L758 0L711 0L663 0L616 0L568 0L521 0L474 0L426 0L379 0L332 0L284 0L237 0L189 0L142 0L95 0L47 0L0 0Z" fill="#430220"></path><path d="M0 145L47 199L95 187L142 211L189 139L237 181L284 145L332 133L379 181L426 157L474 199L521 211L568 235L616 217L663 169L711 235L758 157L805 157L853 241L900 169L900 137L853 215L805 131L758 125L711 209L663 107L616 155L568 179L521 161L474 137L426 131L379 137L332 89L284 113L237 155L189 95L142 155L95 161L47 167L0 101Z" fill="#762325"></path><path d="M0 175L47 235L95 223L142 265L189 187L237 247L284 205L332 169L379 241L426 193L474 253L521 265L568 295L616 247L663 211L711 271L758 193L805 187L853 283L900 199L900 167L853 239L805 155L758 155L711 233L663 167L616 215L568 233L521 209L474 197L426 155L379 179L332 131L284 143L237 179L189 137L142 209L95 185L47 197L0 143Z" fill="#9c501f"></path><path d="M0 361L47 391L95 385L142 349L189 355L237 379L284 361L332 337L379 355L426 301L474 397L521 409L568 397L616 325L663 427L711 373L758 391L805 355L853 379L900 319L900 197L853 281L805 185L758 191L711 269L663 209L616 245L568 293L521 263L474 251L426 191L379 239L332 167L284 203L237 245L189 185L142 263L95 221L47 233L0 173Z" fill="#ad7b18"></path><path d="M0 445L47 457L95 469L142 427L189 433L237 439L284 469L332 445L379 451L426 409L474 487L521 481L568 469L616 439L663 493L711 439L758 457L805 451L853 439L900 391L900 317L853 377L805 353L758 389L711 371L663 425L616 323L568 395L521 407L474 395L426 299L379 353L332 335L284 359L237 377L189 353L142 347L95 383L47 389L0 359Z" fill="#ad7b18"></path><path d="M0 487L47 499L95 505L142 487L189 487L237 493L284 523L332 517L379 481L426 487L474 523L521 523L568 517L616 475L663 523L711 499L758 517L805 517L853 499L900 469L900 389L853 437L805 449L758 455L711 437L663 491L616 437L568 467L521 479L474 485L426 407L379 449L332 443L284 467L237 437L189 431L142 425L95 467L47 455L0 443Z" fill="#9c501f"></path><path d="M0 571L47 547L95 559L142 559L189 547L237 547L284 577L332 553L379 553L426 547L474 571L521 559L568 553L616 571L663 571L711 565L758 577L805 565L853 571L900 559L900 467L853 497L805 515L758 515L711 497L663 521L616 473L568 515L521 521L474 521L426 485L379 479L332 515L284 521L237 491L189 485L142 485L95 503L47 497L0 485Z" fill="#762325"></path><path d="M0 601L47 601L95 601L142 601L189 601L237 601L284 601L332 601L379 601L426 601L474 601L521 601L568 601L616 601L663 601L711 601L758 601L805 601L853 601L900 601L900 557L853 569L805 563L758 575L711 563L663 569L616 569L568 551L521 557L474 569L426 545L379 551L332 551L284 575L237 545L189 545L142 557L95 557L47 545L0 569Z" fill="#430220"></path></svg>